<?xml version="1.0" standalone="no"?>
<!DOCTYPE svg PUBLIC "-//W3C//DTD SVG 20010904//EN"
 "http://www.w3.org/TR/2001/REC-SVG-20010904/DTD/svg10.dtd">
<svg version="1.0" xmlns="http://www.w3.org/2000/svg"
 width="559.000000pt" height="446.000000pt" viewBox="0 0 559.000000 446.000000"
 preserveAspectRatio="xMidYMid meet">

<g transform="translate(0.000000,446.000000) scale(0.100000,-0.100000)"
fill="#000000" stroke="none">
<path d="M2000 4135 c0 -3 9 -23 20 -45 22 -43 26 -65 10 -55 -5 3 -10 0 -11
-7 0 -7 -9 7 -19 32 -16 39 -19 41 -19 18 -1 -15 11 -64 25 -109 24 -77 46
-110 89 -135 18 -10 18 -11 -4 -30 -48 -39 -64 -61 -106 -144 -24 -47 -55 -96
-69 -109 -29 -28 -34 -46 -9 -37 9 4 -1 -13 -23 -37 -21 -25 -47 -47 -56 -50
-26 -7 -22 -24 11 -58 37 -37 87 -39 145 -5 48 27 172 43 179 23 6 -20 -21
-133 -49 -199 -33 -80 -44 -224 -22 -278 8 -19 21 -66 28 -105 8 -38 22 -81
32 -94 10 -13 18 -29 18 -36 0 -7 32 -46 72 -86 111 -114 168 -251 168 -406 0
-35 7 -126 15 -201 8 -77 11 -152 7 -172 -7 -32 -12 -35 -47 -40 -35 -4 -41
-9 -51 -40 l-12 -35 42 -6 41 -6 -36 -1 c-23 -1 -39 -8 -43 -17 -3 -8 -10 -15
-17 -15 -6 0 -9 6 -6 14 4 11 -1 14 -21 13 -43 -4 -34 -31 13 -39 103 -18 191
10 208 67 5 17 16 37 24 46 8 10 18 46 23 80 5 35 16 98 25 139 9 41 20 140
25 220 12 176 19 208 54 243 14 14 26 34 27 44 2 55 31 93 69 93 10 0 84 16
165 35 81 20 175 39 210 42 59 5 64 4 79 -19 9 -13 24 -49 35 -79 60 -174 133
-259 305 -352 59 -32 134 -76 166 -98 31 -21 70 -40 86 -40 25 -2 26 -2 6 -6
-26 -5 -26 -6 2 -78 16 -42 20 -133 10 -197 -6 -31 -11 -38 -38 -43 -17 -4
-39 -9 -50 -12 -14 -4 -16 -2 -10 8 6 10 1 9 -16 -2 -14 -9 -26 -24 -28 -33
-3 -14 7 -16 67 -16 65 0 75 3 120 36 28 19 52 43 55 52 2 9 3 94 3 187 l-2
170 -91 45 c-89 44 -124 69 -124 88 0 9 43 42 55 42 3 0 50 -40 105 -89 93
-84 103 -90 154 -96 163 -21 293 96 246 221 l-11 27 -20 -41 c-32 -64 -75 -85
-173 -86 -72 -1 -89 3 -148 32 -76 37 -129 91 -160 162 l-22 50 -23 -22 c-13
-12 -26 -19 -29 -15 -4 3 -22 0 -42 -9 -19 -8 -36 -13 -38 -12 -1 2 22 29 53
61 37 39 61 56 72 52 15 -4 16 4 9 91 -9 107 -40 209 -82 270 -25 34 -27 36
-22 12 3 -14 9 -34 12 -45 3 -10 -7 3 -22 30 -33 54 -90 93 -151 103 -58 9
-91 -2 -105 -32 -8 -18 -14 -21 -20 -12 -5 8 -8 -1 -8 -24 0 -40 19 -57 82
-72 49 -11 79 -26 74 -35 -3 -5 -33 -2 -68 6 -75 18 -103 44 -113 105 -4 24
-12 46 -17 49 -5 3 3 20 17 37 15 18 24 32 20 32 -15 0 -75 -42 -85 -58 -7
-12 -9 -13 -10 -3 0 7 16 29 36 47 43 41 33 42 -77 8 -100 -30 -261 -43 -327
-25 -57 16 -71 47 -36 79 21 18 22 23 10 28 -18 7 -17 7 -123 -64 -65 -43 -85
-53 -96 -44 -8 7 -17 8 -22 4 -4 -4 -2 2 5 13 17 28 91 82 149 109 40 18 47
25 40 39 -13 22 -41 11 -145 -59 -71 -46 -139 -83 -109 -57 6 4 19 19 30 32
14 17 2 11 -35 -16 -131 -96 -139 -81 -13 23 101 82 106 85 166 119 27 15 34
24 28 34 -7 11 -19 7 -58 -21 -74 -54 -106 -67 -58 -25 22 20 55 43 73 52 33
16 36 22 26 49 -4 12 -20 3 -69 -39 -35 -30 -76 -61 -92 -71 -15 -9 -55 -35
-88 -58 -33 -22 -53 -32 -45 -22 23 29 210 180 257 208 38 22 41 26 30 42 -12
16 -17 15 -66 -24 -63 -50 -242 -163 -248 -157 -16 16 242 197 280 197 17 0
18 5 12 38 -4 20 -8 39 -10 41 -2 2 -18 -13 -36 -33 -18 -21 -44 -43 -58 -51
-14 -7 -51 -36 -81 -64 -55 -50 -84 -67 -59 -33 7 9 38 44 68 76 31 33 48 54
39 47 -21 -16 -38 -7 -38 20 0 11 -21 68 -46 127 -25 59 -52 124 -61 145 l-17
38 -14 -28 c-8 -15 -23 -39 -34 -52 -10 -14 -15 -27 -10 -30 13 -9 32 -70 32
-100 l-1 -26 -17 24 c-9 13 -41 50 -71 82 -53 58 -62 81 -23 60 32 -17 54 -13
84 16 28 27 36 57 18 68 -5 3 -10 16 -10 28 -1 35 -26 70 -51 72 -13 1 -27 -2
-30 -7 -3 -5 -16 18 -29 51 -12 33 -40 79 -62 103 -22 24 -56 64 -76 91 -20
26 -44 47 -54 47 -10 0 -18 -2 -18 -5z m105 -234 c-7 -6 -21 8 -54 56 l-34 48
46 -50 c24 -27 43 -52 42 -54z m-15 -191 c0 -10 -81 -43 -87 -36 -3 3 6 16 20
30 17 17 32 23 46 19 12 -3 21 -9 21 -13z m301 -66 c23 -52 39 -161 21 -150
-5 3 -13 0 -15 -6 -3 -7 -6 -4 -6 8 -1 18 -24 92 -47 148 -5 13 -4 17 3 13 7
-5 9 0 6 13 -10 39 18 20 38 -26z m-247 17 c4 -5 0 -12 -6 -14 -10 -4 -9 -8 2
-16 12 -8 7 -11 -20 -11 -19 0 -46 3 -59 7 l-24 6 24 18 c25 20 74 25 83 10z
m248 -233 c-7 -7 -12 -8 -12 -2 0 14 12 26 19 19 2 -3 -1 -11 -7 -17z m366
-427 c-18 -28 -39 -51 -47 -51 -8 0 -38 -16 -68 -37 -29 -20 -55 -34 -58 -31
-3 2 10 21 27 42 38 43 172 146 176 135 2 -4 -12 -30 -30 -58z m400 -23 c-3
-7 -36 -20 -75 -29 -39 -8 -120 -40 -179 -70 -137 -68 -133 -66 -110 -40 32
36 84 63 205 107 121 44 166 53 159 32z m357 -17 c33 -19 75 -75 75 -100 -1
-12 -3 -11 -12 4 -27 50 -71 84 -117 91 -54 8 -63 12 -55 26 8 13 71 1 109
-21z m-16 -42 c21 -20 51 -76 51 -96 0 -4 -13 14 -29 39 -17 26 -42 54 -58 62
-24 13 -25 15 -7 16 11 0 31 -10 43 -21z m-499 -54 c-89 -36 -110 -41 -110
-26 0 5 24 18 53 29 28 11 59 22 67 25 8 3 29 6 45 6 22 0 7 -9 -55 -34z m407
19 c-3 -3 -12 -4 -19 -1 -8 3 -5 6 6 6 11 1 17 -2 13 -5z m-819 -66 c-3 -7
-20 -14 -39 -14 l-34 -2 35 5 c30 5 32 7 15 13 -19 8 -18 9 3 9 15 1 22 -4 20
-11z m849 -64 c21 -9 32 -18 26 -21 -14 -5 -102 25 -118 40 -14 14 45 2 92
-19z m-27 -74 c21 -11 41 -24 45 -29 4 -8 -77 32 -94 46 -13 10 15 0 49 -17z
m-66 -226 c3 -8 2 -12 -4 -9 -6 3 -10 10 -10 16 0 14 7 11 14 -7z m104 -124
c20 -16 33 -30 29 -30 -12 0 -107 92 -119 115 -5 11 4 3 21 -17 18 -21 48 -51
69 -68z m-968 -210 c0 -5 -15 -9 -32 -9 l-33 1 30 8 c17 4 31 8 33 9 1 0 2 -3
2 -9z m100 0 c-8 -5 -26 -9 -40 -9 -23 1 -23 2 5 9 43 11 52 11 35 0z"/>
<path d="M2455 3646 c10 -14 19 -26 22 -26 7 0 -17 39 -28 46 -6 3 -3 -5 6
-20z"/>
<path d="M2500 3571 c12 -24 28 -66 36 -93 8 -26 17 -48 20 -48 4 0 76 44 94
58 3 2 -2 9 -10 15 -9 7 -26 29 -39 50 -29 48 -35 47 -15 -2 19 -47 15 -83 -7
-87 -12 -1 -25 17 -44 62 -15 35 -34 69 -42 76 -11 9 -9 -1 7 -31z"/>
<path d="M4157 2428 c-15 -15 -27 -33 -27 -41 0 -8 -11 -31 -25 -51 -21 -31
-23 -38 -9 -43 41 -16 110 79 96 132 l-8 30 -27 -27z"/>
<path d="M3854 2322 c28 -33 115 -72 174 -79 44 -5 52 -3 52 11 0 9 -8 16 -18
16 -40 0 -150 35 -217 68 -5 3 -1 -4 9 -16z"/>
<path d="M3465 2016 c-21 -21 -25 -32 -20 -58 7 -38 -26 -155 -53 -187 -12
-15 -35 -23 -81 -28 -57 -7 -64 -11 -68 -32 -3 -24 -3 -24 69 -19 65 5 75 9
96 34 32 40 133 264 130 289 -4 30 -43 31 -73 1z"/>
<path d="M2800 666 c0 -19 61 -107 84 -120 14 -9 23 -5 48 24 16 19 38 52 49
73 l19 37 -100 0 c-79 0 -100 -3 -100 -14z"/>
</g>
</svg>
